# Made in Blockbench 4.5.2
mtllib tablemid.mtl

o cube
v 1.8 1.7999999999999998 0.5499999999999996
v 1.8 1.7999999999999998 -0.5499999999999996
v 1.8 2.220446049250313e-16 0.5499999999999996
v 1.8 2.220446049250313e-16 -0.5499999999999996
v -1.8 1.7999999999999998 0.5499999999999996
v -1.8 1.7999999999999998 -0.5499999999999996
v -1.8 2.220446049250313e-16 0.5499999999999996
v -1.8 2.220446049250313e-16 -0.5499999999999996
v 1.8 1.7999999999999998 1.5499999999999996
v -1.8 1.7999999999999998 1.5499999999999996
v 1.8 2.220446049250313e-16 1.5499999999999996
v -1.8 2.220446049250313e-16 1.5499999999999996
v 1.8 1.7999999999999998 2.55
v -1.8 1.7999999999999998 2.55
v 1.8 2.220446049250313e-16 2.55
v -1.8 2.220446049250313e-16 2.55
v 1.8 1.7999999999999998 3.55
v -1.8 1.7999999999999998 3.55
v 1.8 2.220446049250313e-16 3.55
v -1.8 2.220446049250313e-16 3.55
vt 0.2578125 0.484375
vt 0.18906250000000002 0.484375
vt 0.18906250000000002 0.37187499999999996
vt 0.2578125 0.37187499999999996
vt 0.3265625 0.37187499999999996
vt 0.3265625 0.484375
vt 0.2578125 0.484375
vt 0.2578125 0.37187499999999996
vt 0.4921875 0.93125
vt 0.7171875 0.93125
vt 0.7171875 1
vt 0.4921875 1
vt 0.7171875 0.484375
vt 0.7171875 0.553125
vt 0.4921875 0.553125
vt 0.4921875 0.484375
vt 0.7421875 0.484375
vt 0.515625 0.484375
vt 0.515625 0.37109375
vt 0.7421875 0.37109375
vt 0.12656250000000002 0.484375
vt 0.12656250000000002 0.37187499999999996
vt 0.18906250000000002 0.37187499999999996
vt 0.18906250000000002 0.484375
vt 0.4921875 0.86875
vt 0.7171875 0.86875
vt 0.7171875 0.93125
vt 0.4921875 0.93125
vt 0.3890625 0.37187499999999996
vt 0.3890625 0.484375
vt 0.3265625 0.484375
vt 0.3265625 0.37187499999999996
vt 0.7171875 0.615625
vt 0.4921875 0.615625
vt 0.4921875 0.553125
vt 0.7171875 0.553125
vt 0.06406250000000002 0.484375
vt 0.06406250000000002 0.37187499999999996
vt 0.12656250000000002 0.37187499999999996
vt 0.12656250000000002 0.484375
vt 0.4921875 0.80625
vt 0.7171875 0.80625
vt 0.7171875 0.86875
vt 0.4921875 0.86875
vt 0.4515625 0.37187499999999996
vt 0.4515625 0.484375
vt 0.3890625 0.484375
vt 0.3890625 0.37187499999999996
vt 0.7171875 0.678125
vt 0.4921875 0.678125
vt 0.4921875 0.615625
vt 0.7171875 0.615625
vt 0.0015625000000000222 0.484375
vt 0.0015625000000000222 0.37187499999999996
vt 0.06406250000000002 0.37187499999999996
vt 0.06406250000000002 0.484375
vt 0.4921875 0.74375
vt 0.7171875 0.74375
vt 0.7171875 0.80625
vt 0.4921875 0.80625
vt 0.5140625 0.37187499999999996
vt 0.5140625 0.484375
vt 0.4515625 0.484375
vt 0.4515625 0.37187499999999996
vt 0.7171875 0.740625
vt 0.4921875 0.740625
vt 0.4921875 0.678125
vt 0.7171875 0.678125
vt 0.2265625 0.2578125
vt 0.2265625 0.37109375
vt 0 0.37109375
vt 0 0.2578125
vn 1 0 0
vn -1 0 0
vn 0 1 0
vn 0 -1 0
vn 0 0 -1
vn 1 0 0
vn 0 1 0
vn -1 0 0
vn 0 -1 0
vn 1 0 0
vn 0 1 0
vn -1 0 0
vn 0 -1 0
vn 1 0 0
vn 0 1 0
vn -1 0 0
vn 0 -1 0
vn 0 0 1
usemtl m_da69596f-f1b9-56d4-b9be-facf2456210d
f 2/1/1 1/2/1 3/3/1 4/4/1
f 7/5/2 5/6/2 6/7/2 8/8/2
f 5/9/3 1/10/3 2/11/3 6/12/3
f 4/13/4 3/14/4 7/15/4 8/16/4
f 6/17/5 2/18/5 4/19/5 8/20/5
f 9/21/6 11/22/6 3/23/6 1/24/6
f 10/25/7 9/26/7 1/27/7 5/28/7
f 12/29/8 10/30/8 5/31/8 7/32/8
f 11/33/9 12/34/9 7/35/9 3/36/9
f 13/37/10 15/38/10 11/39/10 9/40/10
f 14/41/11 13/42/11 9/43/11 10/44/11
f 16/45/12 14/46/12 10/47/12 12/48/12
f 15/49/13 16/50/13 12/51/13 11/52/13
f 17/53/14 19/54/14 15/55/14 13/56/14
f 18/57/15 17/58/15 13/59/15 14/60/15
f 20/61/16 18/62/16 14/63/16 16/64/16
f 19/65/17 20/66/17 16/67/17 15/68/17
f 19/69/18 17/70/18 18/71/18 20/72/18
o cube
v 2.05 1.8499999999999996 0.5499999999999996
v 2.05 1.8499999999999996 -0.5499999999999996
v 2.05 1.75 0.5499999999999996
v 2.05 1.75 -0.5499999999999996
v -2.05 1.8499999999999996 0.5499999999999996
v -2.05 1.8499999999999996 -0.5499999999999996
v -2.05 1.75 0.5499999999999996
v -2.05 1.75 -0.5499999999999996
v 2.05 1.8499999999999996 1.5499999999999996
v -2.05 1.8499999999999996 1.5499999999999996
v 2.05 1.75 1.5499999999999996
v -2.05 1.75 1.5499999999999996
v 2.05 1.8499999999999996 2.55
v -2.05 1.8499999999999996 2.55
v 2.05 1.75 2.55
v -2.05 1.75 2.55
v 2.05 1.8499999999999996 3.55
v -2.05 1.8499999999999996 3.55
v 2.05 1.75 3.55
v -2.05 1.75 3.55
vt 0.296875 0.35546875
vt 0.2265625 0.35546875
vt 0.2265625 0.34765625
vt 0.296875 0.34765625
vt 0.3671875 0.34765625
vt 0.3671875 0.35546875
vt 0.296875 0.35546875
vt 0.296875 0.34765625
vt 0 0.93125
vt 0.25625 0.93125
vt 0.25625 1
vt 0 1
vt 0.25625 0.484375
vt 0.25625 0.553125
vt 0 0.553125
vt 0 0.484375
vt 0.484375 0.37109375
vt 0.2265625 0.37109375
vt 0.2265625 0.36328125
vt 0.484375 0.36328125
vt 0.5078125 0.35546875
vt 0.5078125 0.34765625
vt 0.5703125 0.34765625
vt 0.5703125 0.35546875
vt 0 0.86875
vt 0.25625 0.86875
vt 0.25625 0.93125
vt 0 0.93125
vt 0.6328125 0.34765625
vt 0.6328125 0.35546875
vt 0.5703125 0.35546875
vt 0.5703125 0.34765625
vt 0.25625 0.615625
vt 0 0.615625
vt 0 0.553125
vt 0.25625 0.553125
vt 0.6328125 0.35546875
vt 0.6328125 0.34765625
vt 0.6953125 0.34765625
vt 0.6953125 0.35546875
vt 0 0.80625
vt 0.25625 0.80625
vt 0.25625 0.86875
vt 0 0.86875
vt 0.2890625 0.33984375
vt 0.2890625 0.34765625
vt 0.2265625 0.34765625
vt 0.2265625 0.33984375
vt 0.25625 0.678125
vt 0 0.678125
vt 0 0.615625
vt 0.25625 0.615625
vt 0.2890625 0.34765625
vt 0.2890625 0.33984375
vt 0.3515625 0.33984375
vt 0.3515625 0.34765625
vt 0 0.74375
vt 0.25625 0.74375
vt 0.25625 0.80625
vt 0 0.80625
vt 0.4140625 0.33984375
vt 0.4140625 0.34765625
vt 0.3515625 0.34765625
vt 0.3515625 0.33984375
vt 0.25625 0.740625
vt 0 0.740625
vt 0 0.678125
vt 0.25625 0.678125
vt 0.7421875 0.36328125
vt 0.7421875 0.37109375
vt 0.484375 0.37109375
vt 0.484375 0.36328125
vn 1 0 0
vn -1 0 0
vn 0 1 0
vn 0 -1 0
vn 0 0 -1
vn 1 0 0
vn 0 1 0
vn -1 0 0
vn 0 -1 0
vn 1 0 0
vn 0 1 0
vn -1 0 0
vn 0 -1 0
vn 1 0 0
vn 0 1 0
vn -1 0 0
vn 0 -1 0
vn 0 0 1
usemtl m_da69596f-f1b9-56d4-b9be-facf2456210d
f 22/73/19 21/74/19 23/75/19 24/76/19
f 27/77/20 25/78/20 26/79/20 28/80/20
f 25/81/21 21/82/21 22/83/21 26/84/21
f 24/85/22 23/86/22 27/87/22 28/88/22
f 26/89/23 22/90/23 24/91/23 28/92/23
f 29/93/24 31/94/24 23/95/24 21/96/24
f 30/97/25 29/98/25 21/99/25 25/100/25
f 32/101/26 30/102/26 25/103/26 27/104/26
f 31/105/27 32/106/27 27/107/27 23/108/27
f 33/109/28 35/110/28 31/111/28 29/112/28
f 34/113/29 33/114/29 29/115/29 30/116/29
f 36/117/30 34/118/30 30/119/30 32/120/30
f 35/121/31 36/122/31 32/123/31 31/124/31
f 37/125/32 39/126/32 35/127/32 33/128/32
f 38/129/33 37/130/33 33/131/33 34/132/33
f 40/133/34 38/134/34 34/135/34 36/136/34
f 39/137/35 40/138/35 36/139/35 35/140/35
f 39/141/36 37/142/36 38/143/36 40/144/36
o cube
v 1.8499999999999999 0.34999999999999964 0.5499999999999996
v 1.8499999999999999 0.34999999999999964 -0.5499999999999996
v 1.8499999999999999 0.25 0.5499999999999996
v 1.8499999999999999 0.25 -0.5499999999999996
v -1.8499999999999999 0.34999999999999964 0.5499999999999996
v -1.8499999999999999 0.34999999999999964 -0.5499999999999996
v -1.8499999999999999 0.25 0.5499999999999996
v -1.8499999999999999 0.25 -0.5499999999999996
v 1.8499999999999999 0.34999999999999964 1.5499999999999996
v -1.8499999999999999 0.34999999999999964 1.5499999999999996
v 1.8499999999999999 0.25 1.5499999999999996
v -1.8499999999999999 0.25 1.5499999999999996
v 1.8499999999999999 0.34999999999999964 2.55
v -1.8499999999999999 0.34999999999999964 2.55
v 1.8499999999999999 0.25 2.55
v -1.8499999999999999 0.25 2.55
v 1.8499999999999999 0.34999999999999964 3.55
v -1.8499999999999999 0.34999999999999964 3.55
v 1.8499999999999999 0.25 3.55
v -1.8499999999999999 0.25 3.55
vt 0.4375 0.35546875
vt 0.3671875 0.35546875
vt 0.3671875 0.34765625
vt 0.4375 0.34765625
vt 0.5078125 0.34765625
vt 0.5078125 0.35546875
vt 0.4375 0.35546875
vt 0.4375 0.34765625
vt 0.2578125 0.93125
vt 0.4890625 0.93125
vt 0.4890625 1
vt 0.2578125 1
vt 0.4890625 0.484375
vt 0.4890625 0.553125
vt 0.2578125 0.553125
vt 0.2578125 0.484375
vt 0.45703125 0.36328125
vt 0.2265625 0.36328125
vt 0.2265625 0.35546875
vt 0.45703125 0.35546875
vt 0.4140625 0.34765625
vt 0.4140625 0.33984375
vt 0.4765625 0.33984375
vt 0.4765625 0.34765625
vt 0.2578125 0.86875
vt 0.4890625 0.86875
vt 0.4890625 0.93125
vt 0.2578125 0.93125
vt 0.5390625 0.33984375
vt 0.5390625 0.34765625
vt 0.4765625 0.34765625
vt 0.4765625 0.33984375
vt 0.4890625 0.615625
vt 0.2578125 0.615625
vt 0.2578125 0.553125
vt 0.4890625 0.553125
vt 0.5390625 0.34765625
vt 0.5390625 0.33984375
vt 0.6015625 0.33984375
vt 0.6015625 0.34765625
vt 0.2578125 0.80625
vt 0.4890625 0.80625
vt 0.4890625 0.86875
vt 0.2578125 0.86875
vt 0.6640625 0.33984375
vt 0.6640625 0.34765625
vt 0.6015625 0.34765625
vt 0.6015625 0.33984375
vt 0.4890625 0.678125
vt 0.2578125 0.678125
vt 0.2578125 0.615625
vt 0.4890625 0.615625
vt 0.2265625 0.33984375
vt 0.2265625 0.33203125
vt 0.2890625 0.33203125
vt 0.2890625 0.33984375
vt 0.2578125 0.74375
vt 0.4890625 0.74375
vt 0.4890625 0.80625
vt 0.2578125 0.80625
vt 0.3515625 0.33203125
vt 0.3515625 0.33984375
vt 0.2890625 0.33984375
vt 0.2890625 0.33203125
vt 0.4890625 0.740625
vt 0.2578125 0.740625
vt 0.2578125 0.678125
vt 0.4890625 0.678125
vt 0.6875 0.35546875
vt 0.6875 0.36328125
vt 0.45703125 0.36328125
vt 0.45703125 0.35546875
vn 1 0 0
vn -1 0 0
vn 0 1 0
vn 0 -1 0
vn 0 0 -1
vn 1 0 0
vn 0 1 0
vn -1 0 0
vn 0 -1 0
vn 1 0 0
vn 0 1 0
vn -1 0 0
vn 0 -1 0
vn 1 0 0
vn 0 1 0
vn -1 0 0
vn 0 -1 0
vn 0 0 1
usemtl m_da69596f-f1b9-56d4-b9be-facf2456210d
f 42/145/37 41/146/37 43/147/37 44/148/37
f 47/149/38 45/150/38 46/151/38 48/152/38
f 45/153/39 41/154/39 42/155/39 46/156/39
f 44/157/40 43/158/40 47/159/40 48/160/40
f 46/161/41 42/162/41 44/163/41 48/164/41
f 49/165/42 51/166/42 43/167/42 41/168/42
f 50/169/43 49/170/43 41/171/43 45/172/43
f 52/173/44 50/174/44 45/175/44 47/176/44
f 51/177/45 52/178/45 47/179/45 43/180/45
f 53/181/46 55/182/46 51/183/46 49/184/46
f 54/185/47 53/186/47 49/187/47 50/188/47
f 56/189/48 54/190/48 50/191/48 52/192/48
f 55/193/49 56/194/49 52/195/49 51/196/49
f 57/197/50 59/198/50 55/199/50 53/200/50
f 58/201/51 57/202/51 53/203/51 54/204/51
f 60/205/52 58/206/52 54/207/52 56/208/52
f 59/209/53 60/210/53 56/211/53 55/212/53
f 59/213/54 57/214/54 58/215/54 60/216/54