# Made in Blockbench 4.5.2
mtllib full_mug.mtl

o cube
v 0.1875 1 0.1875
v 0.1875 1 -0.1875
v 0.1875 0.5625 0.1875
v 0.1875 0.5625 -0.1875
v -0.1875 1 -0.1875
v -0.1875 1 0.1875
v -0.1875 0.5625 -0.1875
v -0.1875 0.5625 0.1875
vt 0 1
vt 0.375 1
vt 0.375 0.5625
vt 0 0.5625
vt 0 1
vt 0.375 1
vt 0.375 0.5625
vt 0 0.5625
vt 0 1
vt 0.375 1
vt 0.375 0.5625
vt 0 0.5625
vt 0 1
vt 0.375 1
vt 0.375 0.5625
vt 0 0.5625
vt 0 1
vt 0.375 1
vt 0.375 0.625
vt 0 0.625
vt 0 1
vt 0.375 1
vt 0.375 0.625
vt 0 0.625
vn 0 0 -1
vn 1 0 0
vn 0 0 1
vn -1 0 0
vn 0 1 0
vn 0 -1 0
usemtl none
f 4/4/1 7/3/1 5/2/1 2/1/1
f 3/8/2 4/7/2 2/6/2 1/5/2
f 8/12/3 3/11/3 1/10/3 6/9/3
f 7/16/4 8/15/4 6/14/4 5/13/4
f 6/20/5 1/19/5 2/18/5 5/17/5
f 7/24/6 4/23/6 3/22/6 8/21/6
o cube
v 0.25 0.5625 0.25
v 0.25 0.5625 -0.25
v 0.25 0.4375 0.25
v 0.25 0.4375 -0.25
v -0.25 0.5625 0.25
v -0.25 0.5625 -0.25
v -0.25 0.4375 0.25
v -0.25 0.4375 -0.25
v 0.1875 0.5625 0.25
v 0.1875 0.5625 -0.25
v 0.1875 0.4375 -0.25
v 0.1875 0.4375 0.25
v -0.1875 0.5625 -0.25
v -0.1875 0.5625 0.25
v -0.1875 0.4375 0.25
v -0.1875 0.4375 -0.25
v -0.1875 0.5625 0.1875
v 0.1875 0.5625 0.1875
v 0.25 0.5625 0.1875
v 0.25 0.4375 0.1875
v 0.1875 0.4375 0.1875
v -0.1875 0.4375 0.1875
v -0.25 0.4375 0.1875
v -0.25 0.5625 0.1875
v 0.1875 0.5625 -0.1875
v -0.1875 0.5625 -0.1875
v -0.25 0.5625 -0.1875
v -0.25 0.4375 -0.1875
v -0.1875 0.4375 -0.1875
v 0.1875 0.4375 -0.1875
v 0.25 0.4375 -0.1875
v 0.25 0.5625 -0.1875
v -0.1875 0.8125 0.1875
v -0.1875 0.8125 -0.1875
v -0.25 0.8125 -0.1875
v -0.25 0.8125 0.1875
v -0.25 0.8125 -0.25
v -0.1875 0.8125 -0.25
v 0.1875 0.8125 -0.1875
v 0.1875 0.8125 -0.25
v -0.1875 0.8125 0.25
v -0.25 0.8125 0.25
v 0.25 0.8125 -0.1875
v 0.25 0.8125 -0.25
v -0.1875 1.0625 0.1875
v -0.1875 1.0625 -0.1875
v -0.25 1.0625 -0.1875
v -0.25 1.0625 0.1875
v -0.25 1.0625 -0.25
v -0.1875 1.0625 -0.25
v 0.1875 1.0625 -0.1875
v 0.1875 1.0625 -0.25
v -0.1875 1.0625 0.25
v -0.25 1.0625 0.25
v 0.25 1.0625 -0.1875
v 0.25 1.0625 -0.25
v 0.1875 0.8125 0.25
v -0.1875 0.8125 0.1875
v 0.1875 0.8125 0.1875
v -0.1875 0.8125 0.25
v 0.25 0.8125 0.1875
v 0.25 0.8125 -0.1875
v 0.1875 0.8125 -0.1875
v 0.25 0.8125 0.25
v 0.1875 1.0625 0.25
v -0.1875 1.0625 0.1875
v 0.1875 1.0625 0.1875
v -0.1875 1.0625 0.25
v 0.25 1.0625 0.1875
v 0.25 1.0625 -0.1875
v 0.1875 1.0625 -0.1875
v 0.25 1.0625 0.25
v 0.1875 1.0625 0.3
v -0.1875 1.0625 0.3
v -0.1875 0.8125 0.3
v 0.1875 0.8125 0.3
v -0.1875 0.5625 0.3
v 0.1875 0.5625 0.3
v -0.3 1.0625 0.1875
v -0.3 1.0625 -0.1875
v -0.3 0.8125 -0.1875
v -0.3 0.8125 0.1875
v -0.3 0.5625 -0.1875
v -0.3 0.5625 0.1875
v 0.3 1.0625 -0.1875
v 0.3 1.0625 0.1875
v 0.3 0.8125 0.1875
v 0.3 0.8125 -0.1875
v 0.3 0.5625 0.1875
v 0.3 0.5625 -0.1875
v -0.1875 0.8125 -0.3
v 0.1875 0.8125 -0.3
v 0.1875 0.5625 -0.3
v -0.1875 0.5625 -0.3
v -0.1875 1.0625 -0.3
v 0.1875 1.0625 -0.3
v 0.25 0.4875 0.1875
v 0.25 0.4875 -0.1875
v 0.25 0.4875 -0.25
v 0.1875 0.4875 -0.25
v -0.1875 0.4875 -0.25
v -0.25 0.4875 -0.25
v -0.25 0.4875 -0.1875
v -0.25 0.4875 0.1875
v -0.25 0.4875 0.25
v -0.1875 0.4875 0.25
v 0.1875 0.4875 0.25
v 0.25 0.4875 0.25
v 0.1875 0.5625 -0.3
v 0.1875 0.4875 -0.3
v -0.1875 0.4875 -0.3
v -0.1875 0.5625 -0.3
v 0.3 0.5625 0.1875
v 0.3 0.4875 0.1875
v 0.3 0.4875 -0.1875
v 0.3 0.5625 -0.1875
v -0.3 0.5625 -0.1875
v -0.3 0.4875 -0.1875
v -0.3 0.4875 0.1875
v -0.3 0.5625 0.1875
v -0.1875 0.5625 0.3
v -0.1875 0.4875 0.3
v 0.1875 0.4875 0.3
v 0.1875 0.5625 0.3
vt 0.625 0.375
vt 0.625 0.4375
vt 0.5625 0.4375
vt 0.5625 0.375
vt 0.0625 0.3125
vt 0.0625 0.375
vt 0 0.375
vt 0 0.3125
vt 0.125 0.3125
vt 0.125 0.375
vt 0.0625 0.375
vt 0.0625 0.3125
vt 0.125 0.375
vt 0.125 0.3125
vt 0.1875 0.3125
vt 0.1875 0.375
vt 0.6875 0.8125
vt 0.6875 0.875
vt 0.625 0.875
vt 0.625 0.8125
vt 0.6875 0.75
vt 0.6875 0.8125
vt 0.625 0.8125
vt 0.625 0.75
vt 0.3125 0.3125
vt 0.3125 0.375
vt 0.25 0.375
vt 0.25 0.3125
vt 0.6875 0.6875
vt 0.6875 0.75
vt 0.625 0.75
vt 0.625 0.6875
vt 0.3125 0.375
vt 0.3125 0.3125
vt 0.375 0.3125
vt 0.375 0.375
vt 0.6875 0.625
vt 0.6875 0.6875
vt 0.625 0.6875
vt 0.625 0.625
vt 0.25 0.9375
vt 0.25 1
vt 0.125 1
vt 0.125 0.9375
vt 0.25 0.875
vt 0.25 0.9375
vt 0.125 0.9375
vt 0.125 0.875
vt 0.125 0.875
vt 0.125 0.8125
vt 0.25 0.8125
vt 0.25 0.875
vt 0.25 0.75
vt 0.25 0.8125
vt 0.125 0.8125
vt 0.125 0.75
vt 0 0.75
vt 0 0.6875
vt 0.125 0.6875
vt 0.125 0.75
vt 0.625 0.625
vt 0.625 0.5625
vt 0.6875 0.5625
vt 0.6875 0.625
vt 0.5 0.3125
vt 0.5 0.375
vt 0.4375 0.375
vt 0.4375 0.3125
vt 0.6875 0.5
vt 0.6875 0.5625
vt 0.625 0.5625
vt 0.625 0.5
vt 0.375 0.9375
vt 0.375 1
vt 0.25 1
vt 0.25 0.9375
vt 0.5625 0.3125
vt 0.5625 0.375
vt 0.5 0.375
vt 0.5 0.3125
vt 0.625 0.3125
vt 0.625 0.375
vt 0.5625 0.375
vt 0.5625 0.3125
vt 0.625 0.4375
vt 0.625 0.375
vt 0.6875 0.375
vt 0.6875 0.4375
vt 0.125 0.875
vt 0.125 1
vt 0 1
vt 0 0.875
vt 0.3125 0.8125
vt 0.3125 0.9375
vt 0.25 0.9375
vt 0.25 0.8125
vt 0.25 0.6875
vt 0.25 0.75
vt 0.125 0.75
vt 0.125 0.6875
vt 0.25 0.8125
vt 0.25 0.6875
vt 0.3125 0.6875
vt 0.3125 0.8125
vt 0 0.875
vt 0 0.75
vt 0.125 0.75
vt 0.125 0.875
vt 0 0.6875
vt 0 0.5625
vt 0.0625 0.5625
vt 0.0625 0.6875
vt 0.1875 0.625
vt 0.1875 0.6875
vt 0.0625 0.6875
vt 0.0625 0.625
vt 0.375 0.8125
vt 0.375 0.9375
vt 0.3125 0.9375
vt 0.3125 0.8125
vt 0.6875 0.375
vt 0.625 0.375
vt 0.625 0.3125
vt 0.6875 0.3125
vt 0.0625 0.3125
vt 0 0.3125
vt 0 0.25
vt 0.0625 0.25
vt 0.75 1
vt 0.6875 1
vt 0.6875 0.9375
vt 0.75 0.9375
vt 0.3125 0.6875
vt 0.1875 0.6875
vt 0.1875 0.625
vt 0.3125 0.625
vt 0.4375 0.8125
vt 0.3125 0.8125
vt 0.3125 0.75
vt 0.4375 0.75
vt 0.125 0.3125
vt 0.0625 0.3125
vt 0.0625 0.25
vt 0.125 0.25
vt 0.75 0.9375
vt 0.6875 0.9375
vt 0.6875 0.875
vt 0.75 0.875
vt 0.1875 0.3125
vt 0.125 0.3125
vt 0.125 0.25
vt 0.1875 0.25
vt 0.75 0.875
vt 0.6875 0.875
vt 0.6875 0.8125
vt 0.75 0.8125
vt 0.25 0.3125
vt 0.1875 0.3125
vt 0.1875 0.25
vt 0.25 0.25
vt 0.4375 0.75
vt 0.3125 0.75
vt 0.3125 0.6875
vt 0.4375 0.6875
vt 0.4375 0.6875
vt 0.3125 0.6875
vt 0.3125 0.625
vt 0.4375 0.625
vt 0.75 0.8125
vt 0.6875 0.8125
vt 0.6875 0.75
vt 0.75 0.75
vt 0.3125 0.3125
vt 0.25 0.3125
vt 0.25 0.25
vt 0.3125 0.25
vt 0.75 0.75
vt 0.6875 0.75
vt 0.6875 0.6875
vt 0.75 0.6875
vt 0.5 1
vt 0.375 1
vt 0.375 0.9375
vt 0.5 0.9375
vt 0.1875 0.625
vt 0.0625 0.625
vt 0.0625 0.5625
vt 0.1875 0.5625
vt 0.375 0.3125
vt 0.3125 0.3125
vt 0.3125 0.25
vt 0.375 0.25
vt 0.75 0.6875
vt 0.6875 0.6875
vt 0.6875 0.625
vt 0.75 0.625
vt 0.4375 0.3125
vt 0.375 0.3125
vt 0.375 0.25
vt 0.4375 0.25
vt 0.75 0.625
vt 0.6875 0.625
vt 0.6875 0.5625
vt 0.75 0.5625
vt 0.5 0.3125
vt 0.4375 0.3125
vt 0.4375 0.25
vt 0.5 0.25
vt 0.5 0.9375
vt 0.375 0.9375
vt 0.375 0.875
vt 0.5 0.875
vt 0.5 0.875
vt 0.375 0.875
vt 0.375 0.8125
vt 0.5 0.8125
vt 0.75 0.5625
vt 0.6875 0.5625
vt 0.6875 0.5
vt 0.75 0.5
vt 0.5625 0.3125
vt 0.5 0.3125
vt 0.5 0.25
vt 0.5625 0.25
vt 0.3125 0.625
vt 0.1875 0.625
vt 0.1875 0.5625
vt 0.3125 0.5625
vt 0.75 0.5
vt 0.6875 0.5
vt 0.6875 0.4375
vt 0.75 0.4375
vt 0.4375 0.625
vt 0.3125 0.625
vt 0.3125 0.5625
vt 0.4375 0.5625
vt 0.125 0.5625
vt 0 0.5625
vt 0 0.5
vt 0.125 0.5
vt 0.625 0.3125
vt 0.5625 0.3125
vt 0.5625 0.25
vt 0.625 0.25
vt 0.25 0.5625
vt 0.125 0.5625
vt 0.125 0.5
vt 0.25 0.5
vt 0.75 0.4375
vt 0.6875 0.4375
vt 0.6875 0.375
vt 0.75 0.375
vt 0.6875 0.3125
vt 0.625 0.3125
vt 0.625 0.25
vt 0.6875 0.25
vt 0.5625 0.8125
vt 0.4375 0.8125
vt 0.4375 0.75
vt 0.5625 0.75
vt 0.75 0.375
vt 0.6875 0.375
vt 0.6875 0.3125
vt 0.75 0.3125
vt 0.375 0.5625
vt 0.25 0.5625
vt 0.25 0.5
vt 0.375 0.5
vt 0.5625 0.75
vt 0.4375 0.75
vt 0.4375 0.6875
vt 0.5625 0.6875
vt 0.75 0.3125
vt 0.6875 0.3125
vt 0.6875 0.25
vt 0.75 0.25
vt 0.5625 0.6875
vt 0.4375 0.6875
vt 0.4375 0.625
vt 0.5625 0.625
vt 0.0625 0.1875
vt 0.0625 0.25
vt 0 0.25
vt 0 0.1875
vt 0.5 0.5625
vt 0.375 0.5625
vt 0.375 0.5
vt 0.5 0.5
vt 0.75 1
vt 0.75 0.9375
vt 0.8125 0.9375
vt 0.8125 1
vt 0.4375 0.5625
vt 0.5625 0.5625
vt 0.5625 0.625
vt 0.4375 0.625
vt 0.125 0.1875
vt 0.125 0.25
vt 0.0625 0.25
vt 0.0625 0.1875
vt 0.75 0.9375
vt 0.75 0.875
vt 0.8125 0.875
vt 0.8125 0.9375
vt 0.1875 0.1875
vt 0.1875 0.25
vt 0.125 0.25
vt 0.125 0.1875
vt 0 0.5
vt 0 0.375
vt 0.0625 0.375
vt 0.0625 0.5
vt 0.75 0.875
vt 0.75 0.8125
vt 0.8125 0.8125
vt 0.8125 0.875
vt 0.5 1
vt 0.5 0.875
vt 0.5625 0.875
vt 0.5625 1
vt 0.25 0.1875
vt 0.25 0.25
vt 0.1875 0.25
vt 0.1875 0.1875
vt 0.75 0.8125
vt 0.75 0.75
vt 0.8125 0.75
vt 0.8125 0.8125
vt 0.3125 0.1875
vt 0.3125 0.25
vt 0.25 0.25
vt 0.25 0.1875
vt 0.125 0.375
vt 0.125 0.5
vt 0.0625 0.5
vt 0.0625 0.375
vt 0.75 0.75
vt 0.75 0.6875
vt 0.8125 0.6875
vt 0.8125 0.75
vt 0.1875 0.375
vt 0.1875 0.5
vt 0.125 0.5
vt 0.125 0.375
vt 0.375 0.1875
vt 0.375 0.25
vt 0.3125 0.25
vt 0.3125 0.1875
vt 0.75 0.6875
vt 0.75 0.625
vt 0.8125 0.625
vt 0.8125 0.6875
vt 0.4375 0.1875
vt 0.4375 0.25
vt 0.375 0.25
vt 0.375 0.1875
vt 0.5 0.8125
vt 0.625 0.8125
vt 0.625 0.875
vt 0.5 0.875
vt 0.75 0.625
vt 0.75 0.5625
vt 0.8125 0.5625
vt 0.8125 0.625
vt 0.3125 0.5
vt 0.1875 0.5
vt 0.1875 0.4375
vt 0.3125 0.4375
vt 0.5 0.1875
vt 0.5 0.25
vt 0.4375 0.25
vt 0.4375 0.1875
vt 0.75 0.5625
vt 0.75 0.5
vt 0.8125 0.5
vt 0.8125 0.5625
vt 0.3125 0.5
vt 0.3125 0.4375
vt 0.4375 0.4375
vt 0.4375 0.5
vt 0.5 0.25
vt 0.5 0.1875
vt 0.5625 0.1875
vt 0.5625 0.25
vt 0.75 0.5
vt 0.75 0.4375
vt 0.8125 0.4375
vt 0.8125 0.5
vt 0.4375 0.5
vt 0.4375 0.4375
vt 0.5625 0.4375
vt 0.5625 0.5
vt 0.5625 0.25
vt 0.5625 0.1875
vt 0.625 0.1875
vt 0.625 0.25
vt 0.75 0.4375
vt 0.75 0.375
vt 0.8125 0.375
vt 0.8125 0.4375
vt 0.5 0.5625
vt 0.5 0.5
vt 0.625 0.5
vt 0.625 0.5625
vt 0.625 0.25
vt 0.625 0.1875
vt 0.6875 0.1875
vt 0.6875 0.25
vt 0.75 0.375
vt 0.75 0.3125
vt 0.8125 0.3125
vt 0.8125 0.375
vt 0.5625 1
vt 0.5625 0.9375
vt 0.6875 0.9375
vt 0.6875 1
vt 0.6875 0.25
vt 0.6875 0.1875
vt 0.75 0.1875
vt 0.75 0.25
vt 0.75 0.3125
vt 0.75 0.25
vt 0.8125 0.25
vt 0.8125 0.3125
vt 0.8125 0.1875
vt 0.8125 0.25
vt 0.75 0.25
vt 0.75 0.1875
vt 0.25 0.3125
vt 0.25 0.4375
vt 0.1875 0.4375
vt 0.1875 0.3125
vt 0 0.1875
vt 0 0.125
vt 0.0625 0.125
vt 0.0625 0.1875
vt 0.625 0.6875
vt 0.625 0.8125
vt 0.5625 0.8125
vt 0.5625 0.6875
vt 0.875 0.9375
vt 0.875 1
vt 0.8125 1
vt 0.8125 0.9375
vt 0.5625 0.875
vt 0.6875 0.875
vt 0.6875 0.9375
vt 0.5625 0.9375
vt 0.0625 0.1875
vt 0.0625 0.125
vt 0.125 0.125
vt 0.125 0.1875
vt 0.375 0.4375
vt 0.25 0.4375
vt 0.25 0.375
vt 0.375 0.375
vt 0.875 0.875
vt 0.875 0.9375
vt 0.8125 0.9375
vt 0.8125 0.875
vt 0.5625 0.6875
vt 0.5625 0.5625
vt 0.625 0.5625
vt 0.625 0.6875
vt 0.125 0.1875
vt 0.125 0.125
vt 0.1875 0.125
vt 0.1875 0.1875
vt 0.375 0.4375
vt 0.375 0.3125
vt 0.4375 0.3125
vt 0.4375 0.4375
vt 0.875 0.8125
vt 0.875 0.875
vt 0.8125 0.875
vt 0.8125 0.8125
vt 0.5625 0.4375
vt 0.4375 0.4375
vt 0.4375 0.375
vt 0.5625 0.375
vt 0.1875 0.1875
vt 0.1875 0.125
vt 0.25 0.125
vt 0.25 0.1875
vt 0.5625 0.4375
vt 0.6875 0.4375
vt 0.6875 0.5
vt 0.5625 0.5
vn 1 0 0
vn -1 0 0
vn 0 1 0
vn 0 -1 0
vn 0 0 1
vn 0 0 -1
vn 0 1 0
vn 0 0 -1
vn 0 -1 0
vn 0 0 1
vn 0 1 0
vn 0 0 1
vn 0 -1 0
vn 0 0 -1
vn 0 1 0
vn 0 1 0
vn 1 0 0
vn 0 -1 0
vn 0 -1 0
vn 0 -1 0
vn -1 0 0
vn 0 1 0
vn 0 1 0
vn 0 1 0
vn -1 0 0
vn 0 -1 0
vn 0 -1 0
vn 0 -1 0
vn 1 0 0
vn 0 1 0
vn 1 0 0
vn -1 0 0
vn 0 0 1
vn 0 0 1
vn 0 0 -1
vn 0 0 1
vn 1 0 0
vn 0 0 -1
vn -1 0 0
vn 0 0 -1
vn 1 0 0
vn -1 0 0
vn 1 0 0
vn -1 0 0
vn 0 0 1
vn 0 0 1
vn 0 0 -1
vn 0 0 1
vn 1 0 0
vn 0 0 -1
vn -1 0 0
vn 0 0 -1
vn 1 0 0
vn -1 0 0
vn 1 0 0
vn 0 0 1
vn 0 0 -1
vn -1 0 0
vn 0 0 1
vn 1 0 0
vn 0 0 -1
vn -1 0 0
vn 1 0 0
vn 0 0 1
vn 0 0 -1
vn -1 0 0
vn 0 0 1
vn 1 0 0
vn 0 0 -1
vn -1 0 0
vn -1 0 0
vn 0 -1 0
vn 1 0 0
vn 0 1 0
vn -1 0 0
vn 1 0 0
vn 0 0 -1
vn 0 -1 0
vn 0 0 1
vn 0 1 0
vn 0 0 -1
vn 0 0 1
vn 0 0 1
vn 0 -1 0
vn 0 0 -1
vn 0 1 0
vn 0 0 1
vn 0 0 -1
vn 1 0 0
vn 0 -1 0
vn -1 0 0
vn 0 1 0
vn 1 0 0
vn -1 0 0
vn 1 0 0
vn 1 0 0
vn 0 0 -1
vn 0 0 -1
vn 0 0 -1
vn -1 0 0
vn -1 0 0
vn -1 0 0
vn 0 0 1
vn 0 0 1
vn 0 0 1
vn 1 0 0
vn 0 0 1
vn 0 -1 0
vn 0 0 -1
vn 0 1 0
vn 1 0 0
vn 0 -1 0
vn -1 0 0
vn 0 1 0
vn 0 0 -1
vn 0 -1 0
vn 0 0 1
vn 0 1 0
vn -1 0 0
vn 0 -1 0
vn 1 0 0
vn 0 1 0
usemtl m_f1be86ba-058e-b076-bf8a-0bc114f880fe
f 28/25/7 105/26/7 116/27/7 11/28/7
f 15/29/8 113/30/8 112/31/8 31/32/8
f 80/33/9 77/34/9 75/35/9 73/36/9
f 20/37/10 29/38/10 28/39/10 11/40/10
f 11/41/11 116/42/11 115/43/11 20/44/11
f 19/45/12 108/46/12 107/47/12 12/48/12
f 61/49/13 53/50/13 56/51/13 62/52/13
f 16/53/14 110/54/14 109/55/14 24/56/14
f 15/57/15 31/58/15 30/59/15 23/60/15
f 23/61/16 114/62/16 113/63/16 15/64/16
f 73/65/17 75/66/17 74/67/17 76/68/17
f 20/69/18 115/70/18 114/71/18 23/72/18
f 23/73/19 30/74/19 29/75/19 20/76/19
f 24/77/20 109/78/20 108/79/20 19/80/20
f 58/81/21 54/82/21 59/83/21 60/84/21
f 60/85/22 59/86/22 63/87/22 64/88/22
f 12/89/23 107/90/23 106/91/23 39/92/23
f 12/93/24 39/94/24 38/95/24 19/96/24
f 19/97/25 38/98/25 37/99/25 24/100/25
f 24/101/26 37/102/26 36/103/26 16/104/26
f 36/105/27 111/106/27 110/107/27 16/108/27
f 57/109/28 55/110/28 54/111/28 58/112/28
f 26/113/29 33/114/29 34/115/29 25/116/29
f 53/117/30 54/118/30 55/119/30 56/120/30
f 31/121/31 112/122/31 111/123/31 36/124/31
f 31/125/32 36/126/32 37/127/32 30/128/32
f 30/129/33 37/130/33 38/131/33 29/132/33
f 29/133/34 38/134/34 39/135/34 28/136/34
f 39/137/35 106/138/35 105/139/35 28/140/35
f 77/141/36 78/142/36 79/143/36 75/144/36
f 41/145/37 49/146/37 22/147/37 25/148/37
f 50/149/38 44/150/38 32/151/38 13/152/38
f 49/153/39 50/154/39 13/155/39 22/156/39
f 47/157/40 42/158/40 34/159/40 33/160/40
f 99/161/41 100/162/41 101/163/41 102/164/41
f 51/165/42 47/166/42 33/167/42 40/168/42
f 52/169/43 51/170/43 40/171/43 10/172/43
f 48/173/44 52/174/44 10/175/44 18/176/44
f 43/177/45 45/178/45 14/179/45 35/180/45
f 45/181/46 46/182/46 21/183/46 14/184/46
f 42/185/47 41/186/47 25/187/47 34/188/47
f 90/189/48 89/190/48 91/191/48 92/192/48
f 53/193/49 61/194/49 49/195/49 41/196/49
f 62/197/50 56/198/50 44/199/50 50/200/50
f 61/201/51 62/202/51 50/203/51 49/204/51
f 59/205/52 54/206/52 42/207/52 47/208/52
f 103/209/53 104/210/53 100/211/53 99/212/53
f 63/213/54 59/214/54 47/215/54 51/216/54
f 64/217/55 63/218/55 51/219/55 52/220/55
f 60/221/56 64/222/56 52/223/56 48/224/56
f 55/225/57 57/226/57 45/227/57 43/228/57
f 57/229/58 58/230/58 46/231/58 45/232/58
f 54/233/59 53/234/59 41/235/59 42/236/59
f 87/237/60 88/238/60 89/239/60 90/240/60
f 69/241/61 72/242/61 9/243/61 27/244/61
f 72/245/62 65/246/62 17/247/62 9/248/62
f 66/249/63 67/250/63 26/251/63 25/252/63
f 68/253/64 66/254/64 25/255/64 22/256/64
f 84/257/65 83/258/65 85/259/65 86/260/65
f 96/261/66 95/262/66 97/263/66 98/264/66
f 71/265/67 70/266/67 40/267/67 33/268/67
f 67/269/68 71/270/68 33/271/68 26/272/68
f 77/273/69 80/274/69 72/275/69 69/276/69
f 80/277/70 73/278/70 65/279/70 72/280/70
f 74/281/71 75/282/71 67/283/71 66/284/71
f 76/285/72 74/286/72 66/287/72 68/288/72
f 81/289/73 82/290/73 83/291/73 84/292/73
f 93/293/74 94/294/74 95/295/74 96/296/74
f 79/297/75 78/298/75 70/299/75 71/300/75
f 75/301/76 79/302/76 71/303/76 67/304/76
f 85/305/77 83/306/77 68/307/77 22/308/77
f 86/309/78 85/310/78 22/311/78 17/312/78
f 84/313/79 86/314/79 17/315/79 65/316/79
f 82/317/80 81/318/80 73/319/80 76/320/80
f 83/321/81 82/322/81 76/323/81 68/324/81
f 81/325/82 84/326/82 65/327/82 73/328/82
f 91/329/83 89/330/83 43/331/83 35/332/83
f 92/333/84 91/334/84 35/335/84 32/336/84
f 90/337/85 92/338/85 32/339/85 44/340/85
f 88/341/86 87/342/86 56/343/86 55/344/86
f 89/345/87 88/346/87 55/347/87 43/348/87
f 87/349/88 90/350/88 44/351/88 56/352/88
f 97/353/89 95/354/89 69/355/89 27/356/89
f 98/357/90 97/358/90 27/359/90 40/360/90
f 96/361/91 98/362/91 40/363/91 70/364/91
f 94/365/92 93/366/92 78/367/92 77/368/92
f 95/369/93 94/370/93 77/371/93 69/372/93
f 93/373/94 96/374/94 70/375/94 78/376/94
f 101/377/95 100/378/95 48/379/95 18/380/95
f 102/381/96 101/382/96 18/383/96 21/384/96
f 99/385/97 102/386/97 21/387/97 46/388/97
f 104/389/98 103/390/98 58/391/98 60/392/98
f 100/393/99 104/394/99 60/395/99 48/396/99
f 103/397/100 99/398/100 46/399/100 58/400/100
f 121/401/101 122/402/101 123/403/101 124/404/101
f 40/405/102 106/406/102 107/407/102 10/408/102
f 10/409/103 107/410/103 108/411/103 18/412/103
f 117/413/104 118/414/104 119/415/104 120/416/104
f 21/417/105 109/418/105 110/419/105 14/420/105
f 14/421/106 110/422/106 111/423/106 35/424/106
f 125/425/107 126/426/107 127/427/107 128/428/107
f 32/429/108 112/430/108 113/431/108 13/432/108
f 13/433/109 113/434/109 114/435/109 22/436/109
f 129/437/110 130/438/110 131/439/110 132/440/110
f 17/441/111 115/442/111 116/443/111 9/444/111
f 9/445/112 116/446/112 105/447/112 27/448/112
f 122/449/113 121/450/113 27/451/113 105/452/113
f 123/453/114 122/454/114 105/455/114 106/456/114
f 124/457/115 123/458/115 106/459/115 40/460/115
f 121/461/116 124/462/116 40/463/116 27/464/116
f 118/465/117 117/466/117 18/467/117 108/468/117
f 119/469/118 118/470/118 108/471/118 109/472/118
f 120/473/119 119/474/119 109/475/119 21/476/119
f 117/477/120 120/478/120 21/479/120 18/480/120
f 126/481/121 125/482/121 35/483/121 111/484/121
f 127/485/122 126/486/122 111/487/122 112/488/122
f 128/489/123 127/490/123 112/491/123 32/492/123
f 125/493/124 128/494/124 32/495/124 35/496/124
f 130/497/125 129/498/125 22/499/125 114/500/125
f 131/501/126 130/502/126 114/503/126 115/504/126
f 132/505/127 131/506/127 115/507/127 17/508/127
f 129/509/128 132/510/128 17/511/128 22/512/128
o cube
v 0.049999999999999975 1.05 0.38749999999999996
v 0.049999999999999975 1.05 0.3374999999999999
v 0.049999999999999975 0.65 0.38749999999999996
v 0.049999999999999975 0.65 0.3374999999999999
v -0.049999999999999975 1.05 0.38749999999999996
v -0.049999999999999975 1.05 0.3374999999999999
v -0.049999999999999975 0.65 0.38749999999999996
v -0.049999999999999975 0.65 0.3374999999999999
v 0.049999999999999975 0.7000000000000001 0.3374999999999999
v -0.049999999999999975 0.7000000000000001 0.3374999999999999
v -0.049999999999999975 0.7000000000000001 0.38749999999999996
v 0.049999999999999975 0.7000000000000001 0.38749999999999996
v 0.049999999999999975 1 0.38749999999999996
v -0.049999999999999975 1 0.38749999999999996
v -0.049999999999999975 1 0.3374999999999999
v 0.049999999999999975 1 0.3374999999999999
v 0.049999999999999975 1.05 0.2874999999999999
v -0.049999999999999975 1 0.2874999999999999
v 0.049999999999999975 1 0.2874999999999999
v -0.049999999999999975 1.05 0.2874999999999999
v -0.049999999999999975 0.65 0.2874999999999999
v 0.049999999999999975 0.7000000000000001 0.2874999999999999
v -0.049999999999999975 0.7000000000000001 0.2874999999999999
v 0.049999999999999975 0.65 0.2874999999999999
vt 0.0625 0.9375
vt 0.0625 1
vt 0 1
vt 0 0.9375
vt 0.0625 0.875
vt 0.0625 0.9375
vt 0 0.9375
vt 0 0.875
vt 0.0625 0.9375
vt 0.125 0.9375
vt 0.125 1
vt 0.0625 1
vt 0.125 0.875
vt 0.125 0.9375
vt 0.0625 0.9375
vt 0.0625 0.875
vt 0.0625 0.8125
vt 0.0625 0.875
vt 0 0.875
vt 0 0.8125
vt 0.1875 0.9375
vt 0.1875 1
vt 0.125 1
vt 0.125 0.9375
vt 0.0625 0.875
vt 0.0625 0.8125
vt 0.125 0.8125
vt 0.125 0.875
vt 0.125 0.9375
vt 0.125 0.875
vt 0.1875 0.875
vt 0.1875 0.9375
vt 0.125 0.875
vt 0.125 0.8125
vt 0.1875 0.8125
vt 0.1875 0.875
vt 0 0.8125
vt 0 0.75
vt 0.0625 0.75
vt 0.0625 0.8125
vt 0.25 0.9375
vt 0.25 1
vt 0.1875 1
vt 0.1875 0.9375
vt 0.125 0.75
vt 0.125 0.8125
vt 0.0625 0.8125
vt 0.0625 0.75
vt 0.25 0.875
vt 0.25 0.9375
vt 0.1875 0.9375
vt 0.1875 0.875
vt 0.1875 0.75
vt 0.1875 0.8125
vt 0.125 0.8125
vt 0.125 0.75
vt 0.25 0.8125
vt 0.25 0.875
vt 0.1875 0.875
vt 0.1875 0.8125
vt 0.1875 0.75
vt 0.25 0.75
vt 0.25 0.8125
vt 0.1875 0.8125
vt 0 0.75
vt 0 0.6875
vt 0.0625 0.6875
vt 0.0625 0.75
vt 0.3125 1
vt 0.25 1
vt 0.25 0.9375
vt 0.3125 0.9375
vt 0.0625 0.75
vt 0.0625 0.6875
vt 0.125 0.6875
vt 0.125 0.75
vt 0.3125 0.9375
vt 0.25 0.9375
vt 0.25 0.875
vt 0.3125 0.875
vt 0.1875 0.6875
vt 0.1875 0.75
vt 0.125 0.75
vt 0.125 0.6875
vt 0.25 0.8125
vt 0.3125 0.8125
vt 0.3125 0.875
vt 0.25 0.875
vn 1 0 0
vn -1 0 0
vn 0 1 0
vn 0 -1 0
vn 0 0 1
vn 0 0 -1
vn 0 0 -1
vn -1 0 0
vn 0 0 1
vn 1 0 0
vn 0 0 1
vn -1 0 0
vn 0 0 -1
vn 1 0 0
vn 1 0 0
vn 0 -1 0
vn -1 0 0
vn 0 1 0
vn -1 0 0
vn 0 1 0
vn 1 0 0
vn 0 -1 0
usemtl m_14068d35-5b7f-fee1-4b1a-1bd9768132af
f 136/513/129 141/514/129 144/515/129 135/516/129
f 139/517/130 143/518/130 142/519/130 140/520/130
f 137/521/131 133/522/131 134/523/131 138/524/131
f 136/525/132 135/526/132 139/527/132 140/528/132
f 135/529/133 144/530/133 143/531/133 139/532/133
f 153/533/134 155/534/134 154/535/134 156/536/134
f 149/537/135 151/538/135 150/539/135 152/540/135
f 138/541/136 147/542/136 146/543/136 137/544/136
f 137/545/137 146/546/137 145/547/137 133/548/137
f 133/549/138 145/550/138 148/551/138 134/552/138
f 144/553/139 145/554/139 146/555/139 143/556/139
f 143/557/140 146/558/140 147/559/140 142/560/140
f 142/561/141 147/562/141 148/563/141 141/564/141
f 141/565/142 148/566/142 145/567/142 144/568/142
f 151/569/143 149/570/143 134/571/143 148/572/143
f 150/573/144 151/574/144 148/575/144 147/576/144
f 152/577/145 150/578/145 147/579/145 138/580/145
f 149/581/146 152/582/146 138/583/146 134/584/146
f 155/585/147 153/586/147 140/587/147 142/588/147
f 154/589/148 155/590/148 142/591/148 141/592/148
f 156/593/149 154/594/149 141/595/149 136/596/149
f 153/597/150 156/598/150 136/599/150 140/600/150