# Made in Blockbench 4.5.2
mtllib Sign.mtl

o cube
v 0.8437500000000003 1.2968749999999984 0.05312499999999999
v 0.8437500000000003 1.2968749999999984 -0.05312499999999999
v 0.8437500000000003 0.4593750000000002 0.05312499999999999
v 0.8437500000000003 0.4593750000000002 -0.05312499999999999
v -0.8312499999999999 1.2968749999999984 0.05312499999999999
v -0.8312499999999999 1.2968749999999984 -0.05312499999999999
v -0.8312499999999999 0.4593750000000002 0.05312499999999999
v -0.8312499999999999 0.4593750000000002 -0.05312499999999999
vt 0.25 0.5625
vt 0.21875 0.5625
vt 0.21875 0.359375
vt 0.25 0.359375
vt 0.28125 0.359375
vt 0.28125 0.5625
vt 0.25 0.5625
vt 0.25 0.359375
vt 0 0.5625
vt 0.421875 0.5625
vt 0.421875 0.59375
vt 0 0.59375
vt 0.84375 0.96875
vt 0.84375 1
vt 0.421875 1
vt 0.421875 0.96875
vt 0.421875 0.796875
vt 0.421875 1
vt 0 1
vt 0 0.796875
vt 0.421875 0.796875
vt 0 0.796875
vt 0 0.59375
vt 0.421875 0.59375
vn 1 0 0
vn -1 0 0
vn 0 1 0
vn 0 -1 0
vn 0 0 1
vn 0 0 -1
usemtl m_58f1118e-c781-5e6f-b027-61c9f290f5a7
f 2/1/1 1/2/1 3/3/1 4/4/1
f 7/5/2 5/6/2 6/7/2 8/8/2
f 5/9/3 1/10/3 2/11/3 6/12/3
f 4/13/4 3/14/4 7/15/4 8/16/4
f 3/17/5 1/18/5 5/19/5 7/20/5
f 6/21/6 2/22/6 4/23/6 8/24/6
o cube
v 0.875 1.3125 0.09375
v 0.875 1.3125 -0.09375
v 0.875 0.4375 0.09375
v 0.875 0.4375 -0.09375
v 0.75 1.3125 0.09375
v 0.75 1.3125 -0.09375
v 0.75 0.4375 0.09375
v 0.75 0.4375 -0.09375
vt 0.46875 0.96875
vt 0.421875 0.96875
vt 0.421875 0.75
vt 0.46875 0.75
vt 0.46875 0.53125
vt 0.46875 0.75
vt 0.421875 0.75
vt 0.421875 0.53125
vt 0.28125 0.515625
vt 0.3125 0.515625
vt 0.3125 0.5625
vt 0.28125 0.5625
vt 0.34375 0.515625
vt 0.34375 0.5625
vt 0.3125 0.5625
vt 0.3125 0.515625
vt 0.125 0.34375
vt 0.125 0.5625
vt 0.09375 0.5625
vt 0.09375 0.34375
vt 0.15625 0.5625
vt 0.125 0.5625
vt 0.125 0.34375
vt 0.15625 0.34375
vn 1 0 0
vn -1 0 0
vn 0 1 0
vn 0 -1 0
vn 0 0 1
vn 0 0 -1
usemtl m_58f1118e-c781-5e6f-b027-61c9f290f5a7
f 10/25/7 9/26/7 11/27/7 12/28/7
f 15/29/8 13/30/8 14/31/8 16/32/8
f 13/33/9 9/34/9 10/35/9 14/36/9
f 12/37/10 11/38/10 15/39/10 16/40/10
f 11/41/11 9/42/11 13/43/11 15/44/11
f 14/45/12 10/46/12 12/47/12 16/48/12
o cube
v -0.78125 1.3125 0.09375
v -0.78125 1.3125 -0.09375
v -0.78125 0.4375 0.09375
v -0.78125 0.4375 -0.09375
v -0.90625 1.3125 0.09375
v -0.90625 1.3125 -0.09375
v -0.90625 0.4375 0.09375
v -0.90625 0.4375 -0.09375
vt 0.046875 0.5625
vt 0 0.5625
vt 0 0.34375
vt 0.046875 0.34375
vt 0.09375 0.34375
vt 0.09375 0.5625
vt 0.046875 0.5625
vt 0.046875 0.34375
vt 0.34375 0.515625
vt 0.375 0.515625
vt 0.375 0.5625
vt 0.34375 0.5625
vt 0.40625 0.515625
vt 0.40625 0.5625
vt 0.375 0.5625
vt 0.375 0.515625
vt 0.1875 0.34375
vt 0.1875 0.5625
vt 0.15625 0.5625
vt 0.15625 0.34375
vt 0.21875 0.5625
vt 0.1875 0.5625
vt 0.1875 0.34375
vt 0.21875 0.34375
vn 1 0 0
vn -1 0 0
vn 0 1 0
vn 0 -1 0
vn 0 0 1
vn 0 0 -1
usemtl m_58f1118e-c781-5e6f-b027-61c9f290f5a7
f 18/49/13 17/50/13 19/51/13 20/52/13
f 23/53/14 21/54/14 22/55/14 24/56/14
f 21/57/15 17/58/15 18/59/15 22/60/15
f 20/61/16 19/62/16 23/63/16 24/64/16
f 19/65/17 17/66/17 21/67/17 23/68/17
f 22/69/18 18/70/18 20/71/18 24/72/18