# Made in Blockbench 4.5.2
mtllib wall.mtl

o cube
v 0.03125 1.0625 0.6562500000000001
v 0.03125 1.0625 -0.6562500000000001
v 0.03125 -0.0625 0.6562500000000001
v 0.03125 -0.0625 -0.6562500000000001
v -0.03125 1.0625 0.6562500000000001
v -0.03125 1.0625 -0.6562500000000001
v -0.03125 -0.0625 0.6562500000000001
v -0.03125 -0.0625 -0.6562500000000001
vt 0.328125 1
vt 0 1
vt 0 0.75
vt 0.328125 0.75
vt 0.328125 0.5
vt 0.328125 0.75
vt 0 0.75
vt 0 0.5
vt 0.328125 0.671875
vt 0.34375 0.671875
vt 0.34375 1
vt 0.328125 1
vt 0.34375 0.34375
vt 0.34375 0.671875
vt 0.328125 0.671875
vt 0.328125 0.34375
vt 0.359375 0.75
vt 0.359375 1
vt 0.34375 1
vt 0.34375 0.75
vt 0.359375 0.75
vt 0.34375 0.75
vt 0.34375 0.5
vt 0.359375 0.5
vn 1 0 0
vn -1 0 0
vn 0 1 0
vn 0 -1 0
vn 0 0 1
vn 0 0 -1
usemtl m_6f348ba7-9c9b-8936-a6ee-77ae4812d411
f 2/1/1 1/2/1 3/3/1 4/4/1
f 7/5/2 5/6/2 6/7/2 8/8/2
f 5/9/3 1/10/3 2/11/3 6/12/3
f 4/13/4 3/14/4 7/15/4 8/16/4
f 3/17/5 1/18/5 5/19/5 7/20/5
f 6/21/6 2/22/6 4/23/6 8/24/6